<svg height="511pt" viewBox="-5 1 511 511.99923" width="511pt" xmlns="http://www.w3.org/2000/svg"><path d="m501.257812 261.621094c0 138.28125-112.097656 250.378906-250.378906 250.378906-40.425781 0-78.613281-9.582031-112.414062-26.59375-18.457032-9.289062-35.609375-21.820312-51.101563-35.191406-20.066406-17.320313-37.355469-36.75-51.105469-59.570313-22.699218-37.683593-35.757812-81.828125-35.757812-129.023437 0-138.28125 112.097656-250.378906 250.378906-250.378906s250.378906 112.097656 250.378906 250.378906zm0 0" fill="#84deea"/><path d="m119.140625 130.519531-8.386719 4.84375v159.246094c0 .96875-.789062 1.757813-1.761718 1.757813h-43.253907c-.972656 0-1.757812-.789063-1.757812-1.757813v-159.246094l-8.390625-4.84375c-9.605469-5.550781-13.828125-17.207031-10.003906-27.625l36.425781-99.15625c1.832031-4.984375 8.878906-4.984375 10.707031 0l36.425781 99.15625c3.828125 10.414063-.394531 22.074219-10.003906 27.625zm0 0" fill="#08c"/><path d="m119.140625 130.519531-8.386719 4.84375v100.847657c0 6.613281-5.363281 11.976562-11.980468 11.976562-6.613282 0-11.976563-5.363281-11.976563-11.976562v-236.1718755c2.398437-.2343745 4.929687.9921875 5.921875 3.6992185l36.425781 99.15625c3.828125 10.414063-.394531 22.074219-10.003906 27.625zm0 0" fill="#50b0d6"/><path d="m146.382812 288.632812c0 5.644532-4.574218 10.222657-10.21875 10.222657h-5.511718c4.855468 5.421875 7.8125 12.582031 7.8125 20.4375v166.113281c-42.359375-21.324219-77.832032-54.324219-102.195313-94.765625v-71.347656c0-7.855469 2.953125-15.015625 7.8125-20.4375h-5.515625c-5.644531 0-10.21875-4.578125-10.21875-10.222657 0-5.644531 4.574219-10.21875 10.21875-10.21875h97.597656c5.644532 0 10.21875 4.574219 10.21875 10.21875zm0 0" fill="#ff895a"/><path d="m60.796875 288.652344c0 3.757812 2.027344 7.042968 5.046875 8.816406 3.167969 1.863281 5.171875 5.203125 5.171875 8.878906v129.449219c-13.214844-13.644531-24.890625-28.777344-34.746094-45.136719v-71.347656c0-7.855469 2.953125-15.015625 7.8125-20.4375h-5.515625c-5.867187 0-10.582031-4.949219-10.195312-10.902344.351562-5.429687 5.105468-9.539062 10.546875-9.539062h32.097656c-5.644531 0-10.21875 4.574218-10.21875 10.21875zm0 0" fill="#ff6466"/><path d="m75.613281 329.511719v110.90625c-7.257812-7.117188-14.085937-14.664063-20.4375-22.617188v-88.289062c0-5.644531 4.574219-10.21875 10.21875-10.21875s10.21875 4.574219 10.21875 10.21875zm33.726563-10.21875c-5.644532 0-10.222656 4.574219-10.222656 10.21875v131.269531c6.566406 5.011719 13.386718 9.699219 20.441406 14.054688v-145.324219c0-5.644531-4.578125-10.21875-10.21875-10.21875zm0 0" fill="#ff393a"/><path d="m285.625 40.878906v468.707032c-11.359375 1.578124-22.953125 2.414062-34.746094 2.414062-30.445312 0-59.621094-5.433594-86.609375-15.386719v-455.734375c0-16.933594 13.722657-30.660156 30.65625-30.660156h60.039063c16.933594 0 30.660156 13.726562 30.660156 30.660156zm0 0" fill="#00b96f"/><path d="m420.855469 21.289062c5.277343 17.578126 18.929687 31.53125 36.320312 37.226563 6.320313 2.070313 10.613281 7.929687 10.613281 14.578125v313.667969c-43.285156 74.871093-124.210937 125.238281-216.910156 125.238281-10.292968 0-20.4375-.621094-30.402344-1.828125v-469.292969c0-16.933594 13.726563-30.660156 30.65625-30.660156h155.003907c6.824219 0 12.757812 4.535156 14.71875 11.070312zm0 0" fill="#54d680"/><path d="m260.078125 490.539062h-20.441406c-5.644531 0-10.21875-4.578124-10.21875-10.21875v-429.222656c0-5.644531 4.574219-10.21875 10.21875-10.21875h20.441406c5.644531 0 10.21875 4.574219 10.21875 10.21875v429.222656c0 5.640626-4.574219 10.21875-10.21875 10.21875zm0 0" fill="#008c6c"/><path d="m367.382812 112.414062c0 11.289063-9.152343 20.441407-20.441406 20.441407-11.289062 0-20.4375-9.152344-20.4375-20.441407 0-11.289062 9.148438-20.4375 20.4375-20.4375 11.289063 0 20.441406 9.148438 20.441406 20.4375zm40.878907 20.441407c11.285156 0 20.4375-9.152344 20.4375-20.441407 0-11.289062-9.152344-20.4375-20.4375-20.4375-11.289063 0-20.441407 9.148438-20.441407 20.4375 0 11.289063 9.152344 20.441407 20.441407 20.441407zm-61.320313 30.65625c-11.289062 0-20.4375 9.152343-20.4375 20.441406 0 11.285156 9.148438 20.4375 20.4375 20.4375 11.289063 0 20.441406-9.152344 20.441406-20.4375 0-11.289063-9.152343-20.441406-20.441406-20.441406zm61.320313 0c-11.289063 0-20.441407 9.152343-20.441407 20.441406 0 11.285156 9.152344 20.4375 20.441407 20.4375 11.285156 0 20.4375-9.152344 20.4375-20.4375 0-11.289063-9.152344-20.441406-20.4375-20.441406zm0 0" fill="#00b96f"/><path d="m275.40625 470.097656h-51.097656c-11.289063 0-20.441406-9.148437-20.441406-20.4375v-367.90625c0-11.285156 9.152343-20.4375 20.441406-20.4375h51.097656c11.289062 0 20.4375 9.152344 20.4375 20.4375v367.90625c0 11.289063-9.148438 20.4375-20.4375 20.4375zm0 0" fill="#ffcf48"/><path d="m275.40625 470.097656h-20.441406c-11.285156 0-20.4375-9.148437-20.4375-20.4375v-367.90625c0-11.285156 9.152344-20.4375 20.4375-20.4375h20.441406c11.289062 0 20.4375 9.152344 20.4375 20.4375v367.90625c0 11.289063-9.148438 20.4375-20.4375 20.4375zm0 0" fill="#ffe59c"/><path d="m260.078125 439.441406h-20.441406c-5.644531 0-10.21875-4.578125-10.21875-10.21875v-327.027344c0-5.644531 4.574219-10.21875 10.21875-10.21875h20.441406c5.644531 0 10.21875 4.574219 10.21875 10.21875v327.027344c0 5.640625-4.574219 10.21875-10.21875 10.21875zm0 0" fill="#fa0"/><path d="m270.296875 143.074219v30.65625h-40.878906v-30.65625zm-40.878906 102.195312h40.878906v-30.660156h-40.878906zm0 71.535157h40.878906v-30.65625h-40.878906zm0 71.539062h40.878906v-30.660156h-40.878906zm0 0" fill="#f48c03"/><path d="m433.808594 357.683594c2.820312 0 5.109375-2.289063 5.109375-5.109375v-10.21875c0-2.824219-2.289063-5.109375-5.109375-5.109375h-25.546875v-25.550782c0-2.820312-2.289063-5.109374-5.113281-5.109374h-10.21875c-2.820313 0-5.109376 2.289062-5.109376 5.109374v25.550782h-20.4375v-25.550782c0-2.820312-2.289062-5.109374-5.109374-5.109374h-10.222657c-2.820312 0-5.109375 2.289062-5.109375 5.109374v25.550782h-25.546875c-2.824219 0-5.109375 2.285156-5.109375 5.109375v10.21875c0 2.820312 2.285156 5.109375 5.109375 5.109375h25.546875v20.4375h-25.546875c-2.824219 0-5.109375 2.289062-5.109375 5.113281v10.21875c0 2.820313 2.285156 5.109375 5.109375 5.109375h25.546875v25.546875c0 2.824219 2.289063 5.113281 5.109375 5.113281h10.222657c2.820312 0 5.109374-2.289062 5.109374-5.113281v-25.546875h20.4375v25.546875c0 2.824219 2.289063 5.113281 5.109376 5.113281h10.21875c2.824218 0 5.113281-2.289062 5.113281-5.113281v-25.546875h25.546875c2.820312 0 5.109375-2.289062 5.109375-5.109375v-10.21875c0-2.824219-2.289063-5.113281-5.109375-5.113281h-25.546875v-20.4375zm-45.988282 20.4375h-20.4375v-20.4375h20.4375zm0 0" fill="#ffe49f"/><path d="m413.371094 413.890625h-71.539063c-5.644531 0-10.21875-4.574219-10.21875-10.21875v-71.535156c0-5.644531 4.574219-10.222657 10.21875-10.222657h71.539063c5.644531 0 10.21875 4.578126 10.21875 10.222657v71.535156c0 5.644531-4.574219 10.21875-10.21875 10.21875zm0 0" fill="#c0f9cf"/><path d="m398.039062 398.5625h-40.875c-5.644531 0-10.222656-4.574219-10.222656-10.21875v-40.878906c0-5.644532 4.578125-10.21875 10.222656-10.21875h40.875c5.644532 0 10.222657 4.574218 10.222657 10.21875v40.878906c0 5.644531-4.578125 10.21875-10.222657 10.21875zm0 0" fill="#008c6c"/><path d="m398.039062 398.5625h-20.4375c-5.644531 0-10.21875-4.574219-10.21875-10.21875v-40.878906c0-5.644532 4.574219-10.21875 10.21875-10.21875h20.4375c5.644532 0 10.222657 4.574218 10.222657 10.21875v40.878906c0 5.644531-4.578125 10.21875-10.222657 10.21875zm0 0" fill="#00a972"/><path d="m418.480469 275.925781h-81.757813c-5.644531 0-10.21875-4.574219-10.21875-10.21875v-20.4375c0-5.644531 4.574219-10.21875 10.21875-10.21875h81.757813c5.644531 0 10.21875 4.574219 10.21875 10.21875v20.4375c0 5.644531-4.574219 10.21875-10.21875 10.21875zm0 0" fill="#ffe49f"/><path d="m418.480469 275.925781h-61.316407c-5.644531 0-10.222656-4.574219-10.222656-10.21875v-20.4375c0-5.644531 4.578125-10.21875 10.222656-10.21875h61.316407c5.644531 0 10.21875 4.574219 10.21875 10.21875v20.4375c0 5.644531-4.574219 10.21875-10.21875 10.21875zm0 0" fill="#fff5f5"/><path d="m413.371094 260.597656h-71.539063c-2.820312 0-5.109375-2.289062-5.109375-5.109375 0-2.820312 2.289063-5.109375 5.109375-5.109375h71.539063c2.820312 0 5.109375 2.289063 5.109375 5.109375 0 2.820313-2.289063 5.109375-5.109375 5.109375zm0 0" fill="#008c6c"/></svg>