<svg xmlns="http://www.w3.org/2000/svg" xmlns:xlink="http://www.w3.org/1999/xlink" preserveAspectRatio="xMaxYMax meet">

  <symbol id="postal" viewBox="0 0 32 32"> 
    <title>postal</title>
    <path
      d="M14.1667 29.75V20.5416C14.1667 17.8032 11.9467 15.5833 9.20833 15.5833C6.46992 15.5833 4.25 17.8032 4.25 20.5416V29.75H29.75V21.25C29.75 18.1204 27.2129 15.5833 24.0833 15.5833H9.20833"
      stroke="#232532"
      stroke-width="2.125"
      stroke-linecap="round"
      stroke-linejoin="round"
    />
    <path
      d="M17 15.5833V4.25H22.6667L25.5 7.08333L22.6667 9.91667H17"
      stroke="#232532"
      stroke-width="2.125"
      stroke-linecap="round"
      stroke-linejoin="round"
    />
    <path
      d="M8.5 21.25H9.91667"
      stroke="#232532"
      stroke-width="2.125"
      stroke-linecap="round"
      stroke-linejoin="round"
    />
  </symbol>

  <symbol id="big-home" viewBox="0 0 32 32"> 
    <title>big-home</title>
    <path
      d="M7.08333 17H4.25L17 4.25L29.75 17H26.9167"
      stroke="#232532"
      stroke-width="2.125"
      stroke-linecap="round"
      stroke-linejoin="round"
    />
    <path
      d="M7.08337 17V26.9167C7.08337 28.4815 8.3519 29.75 9.91671 29.75H24.0834C25.6482 29.75 26.9167 28.4815 26.9167 26.9167V17"
      stroke="#232532"
      stroke-width="2.125"
      stroke-linecap="round"
      stroke-linejoin="round"
    />
    <path
      d="M12.75 29.75V21.25C12.75 19.6852 14.0185 18.4167 15.5833 18.4167H18.4167C19.9815 18.4167 21.25 19.6852 21.25 21.25V29.75"
      stroke="#232532"
      stroke-width="2.125"
      stroke-linecap="round"
      stroke-linejoin="round"
    />
  </symbol>

  <symbol id="create-new" viewBox="0 0 60 60"> 
    <title>create-new</title>
    <path d="M50.31,32.05a2,2,0,0,0-2,2V52.9a3.16,3.16,0,0,1-3.16,3.16H11.4A3.16,3.16,0,0,1,8.24,52.9V19.15A3.16,3.16,0,0,1,11.4,16H30.25a2,2,0,0,0,0-4H11.4a7.17,7.17,0,0,0-7.16,7.16V52.9a7.17,7.17,0,0,0,7.16,7.16H45.15a7.17,7.17,0,0,0,7.16-7.16V34.05A2,2,0,0,0,50.31,32.05Z"/><path d="M58,6.27h0l-1-.94a5.34,5.34,0,0,0-7.55.37,5.27,5.27,0,0,0-.81,1.23,2,2,0,0,0-.87-.16,2,2,0,0,0-1.38.65L24.91,31.08a2,2,0,0,0-.48,1l-2,9.83A2,2,0,0,0,25,44.17l9.59-2.9a2,2,0,0,0,.9-.57L57,17a2,2,0,0,0,.27-2.29A5.27,5.27,0,0,0,58,6.27ZM52.39,8.38a1.34,1.34,0,0,1,.93-.44h.07a1.34,1.34,0,0,1,.9.35l1,.94a1.34,1.34,0,0,1-.84,2.33,1.38,1.38,0,0,1-1-.34l-.37-.33-.67-.61A1.34,1.34,0,0,1,52.39,8.38ZM32.91,37.6,27,39.37l1.2-6L48,11.59,50.61,14l.21.19h0l1.82,1.65Z"/>
  </symbol>

  <symbol id="filter" viewBox="0 0 232 232"> 
    <title>filter</title>
    <path d="M205.613,30.693c0-10.405-10.746-18.149-32.854-23.676C154.659,2.492,130.716,0,105.34,0
	C79.965,0,56.021,2.492,37.921,7.017C15.813,12.544,5.066,20.288,5.066,30.693c0,3.85,1.476,7.335,4.45,10.479l68.245,82.777v79.23
	c0,2.595,1.341,5.005,3.546,6.373c1.207,0.749,2.578,1.127,3.954,1.127c1.138,0,2.278-0.259,3.331-0.78l40.075-19.863
	c2.55-1.264,4.165-3.863,4.169-6.71l0.077-59.372l68.254-82.787C204.139,38.024,205.613,34.542,205.613,30.693z M44.94,20.767
	C61.467,17.048,82.917,15,105.34,15s43.874,2.048,60.399,5.767c18.25,4.107,23.38,8.521,24.607,9.926
	c-1.228,1.405-6.357,5.819-24.607,9.926c-16.525,3.719-37.977,5.767-60.399,5.767S61.467,44.338,44.94,40.62
	c-18.249-4.107-23.38-8.521-24.607-9.926C21.56,29.288,26.691,24.874,44.94,20.767z M119.631,116.486
	c-1.105,1.341-1.711,3.023-1.713,4.761l-0.075,57.413l-25.081,12.432v-69.835c0-1.741-0.605-3.428-1.713-4.771L40.306,54.938
	C58.1,59.1,81.058,61.387,105.34,61.387c24.283,0,47.24-2.287,65.034-6.449L119.631,116.486z"/>
    <g></g><g></g><g></g><g></g><g></g><g></g><g></g><g></g><g></g><g></g><g></g><g></g><g></g><g></g><g></g>
  </symbol>

  <symbol id="box" viewBox="0 0 62 62">
    <title>box</title>
    <path d="M58.48 17.12L32.48 3.12002C32.3353 3.04298 32.1739 3.00269 32.01 3.00269C31.8461 3.00269 31.6847 3.04298 31.54 3.12002L5.54 17.12C5.37845 17.2037 5.2428 17.3299 5.14765 17.4849C5.05249 17.64 5.00144 17.8181 5 18V46C5.00048 46.1809 5.05003 46.3583 5.14336 46.5133C5.2367 46.6682 5.37032 46.795 5.53 46.88L31.53 60.88C31.6747 60.9571 31.8361 60.9974 32 60.9974C32.1639 60.9974 32.3253 60.9571 32.47 60.88L58.47 46.88C58.6297 46.795 58.7633 46.6682 58.8566 46.5133C58.95 46.3583 58.9995 46.1809 59 46V18C59.0005 17.8201 58.9524 17.6434 58.8609 17.4886C58.7694 17.3337 58.6378 17.2064 58.48 17.12V17.12ZM32 5.14002L55.9 18L48.9 21.77L25.83 8.46002L32 5.14002ZM8.1 18L15.63 14L38.69 27.26L32 30.86L8.1 18ZM23.76 9.57002L46.83 22.88L40.76 26.15L17.7 12.83L23.76 9.57002ZM42.09 27.7L47.53 24.78V32.24L45.43 30.16C45.3133 30.0441 45.1699 29.9588 45.0123 29.9115C44.8548 29.8643 44.688 29.8567 44.5268 29.8893C44.3656 29.922 44.2149 29.9939 44.0882 30.0986C43.9614 30.2034 43.8624 30.3378 43.8 30.49L42.09 34.61V27.7ZM7 19.67L31 32.6V58.33L7 45.4V19.67ZM33 58.33V32.6L40.09 28.78V39.64C40.1016 39.8639 40.1881 40.0775 40.3356 40.2463C40.4831 40.4152 40.6831 40.5295 40.9034 40.5711C41.1238 40.6126 41.3517 40.5789 41.5505 40.4753C41.7494 40.3717 41.9077 40.2044 42 40L45.06 32.61L47.8 35.33C47.9399 35.4711 48.1186 35.5672 48.3133 35.6063C48.5081 35.6454 48.71 35.6256 48.8935 35.5494C49.0769 35.4732 49.2335 35.3442 49.3433 35.1786C49.4531 35.0131 49.5112 34.8186 49.51 34.62V23.7L56.99 19.7V45.4L33 58.33Z"/>
  </symbol> 
  
  <symbol id="discard" viewBox="0 0 22 22">
    <title>discard</title>
     <g id="Icons" stroke="none" stroke-width="1" fill="none" fill-rule="evenodd">
        <g id="Two-Tone" transform="translate(-204.000000, -3122.000000)">
            <g id="Maps" transform="translate(100.000000, 3068.000000)">
                <g id="Two-Tone-/-Maps-/-layers_clear" transform="translate(102.000000, 54.000000)">
                    <g>
                        <polygon id="Path" points="0 0 24 0 24 24 0 24"></polygon>
                        <path d="M12,13.47 L12.67,12.94 L7.65,7.92 L6.26,9 L12,13.47 Z M12,4.53 L10.83,5.44 L15.85,10.47 L17.74,9 L12,4.53 Z" ></path>
                        <path d="M12,4.53 L17.74,9 L15.85,10.47 L17.28,11.89 L21,9 L12,2 L9.41,4.02 L10.83,5.44 L12,4.53 Z M21,14.07 L19.37,12.8 L18.7,13.32 L20.13,14.75 L21,14.07 Z M3.41,0.86 L2,2.27 L6.22,6.49 L3,9 L12,16 L14.1,14.37 L15.52,15.79 L11.99,18.54 L4.62,12.81 L3,14.07 L12,21.07 L16.95,17.22 L20.73,21 L22.14,19.59 L3.41,0.86 Z M12,13.47 L6.26,9 L7.65,7.92 L12.67,12.94 L12,13.47 Z"  fill="#8f9092"></path>
                    </g>
                </g>
            </g>
        </g>
    </g>
  </symbol> 

<symbol id="star" viewBox="-5 -3 45 60">
    <title>star</title>
    <path d="M26.285,2.486l5.407,10.956c0.376,0.762,1.103,1.29,1.944,1.412l12.091,1.757
      c2.118,0.308,2.963,2.91,1.431,4.403l-8.749,8.528c-0.608,0.593-0.886,1.448-0.742,2.285l2.065,12.042
      c0.362,2.109-1.852,3.717-3.746,2.722l-10.814-5.685c-0.752-0.395-1.651-0.395-2.403,0l-10.814,5.685
      c-1.894,0.996-4.108-0.613-3.746-2.722l2.065-12.042c0.144-0.837-0.134-1.692-0.742-2.285l-8.749-8.528
      c-1.532-1.494-0.687-4.096,1.431-4.403l12.091-1.757c0.841-0.122,1.568-0.65,1.944-1.412l5.407-10.956
      C22.602,0.567,25.338,0.567,26.285,2.486z"/>
    <g></g><g></g><g></g><g></g><g></g><g></g><g></g><g></g><g></g><g></g><g></g><g></g><g></g><g></g><g></g>
</symbol>

  <symbol id="checkmark" viewBox="0 0 65 65">
    <title>checkmark</title>
    <circle class="checkmark__circle" cx="26" cy="26" r="25" fill="none" />
    <path class="checkmark__check" fill="none" d="M14.1 27.2l7.1 7.2 16.7-16.8" />
  </symbol>

  <symbol id="c-plus" viewBox="0 0 102 102">
    <title>c-plus</title>
    <g id="1.-Plus" stroke="none" stroke-width="1" fill="none" fill-rule="evenodd" stroke-linecap="round" stroke-linejoin="round">
        <g transform="translate(2.000000, 2.000000)" stroke="#222F3E" stroke-width="4">
            <circle id="Layer-1" cx="48" cy="48" r="48"></circle>
            <path d="M48,19.1920006 L48,76.7920006" id="Layer-2"></path>
            <path d="M76.8159956,47.9840044 L19.2159956,47.9840044" id="Layer-2"></path>
        </g>
    </g>
  </symbol>

  <symbol id="reset" viewBox="0 0 125 125">
    <title>reset</title>
    <path class="cls-1" d="M17.66229,21.88486,63.3847,30.82574l45.72241,8.94088a1.559,1.559,0,0,0,1.82788-1.22994A10.15176,10.15176,0,0,0,102.9192,26.6239l-15.172-2.96684.79656-4.07352A11.10952,11.10952,0,0,0,79.7827,6.56318L57.33412,2.17343A11.1096,11.1096,0,0,0,44.31375,10.9345L43.51718,15.008l-15.172-2.96685A10.15176,10.15176,0,0,0,16.43235,20.057a1.559,1.559,0,0,0,1.22994,1.82788ZM60.0674,9.82374,74.369,12.62036a8.2641,8.2641,0,0,1,6.5245,9.69647h0l-15.2613-2.9843L50.37093,16.34825h0A8.2641,8.2641,0,0,1,60.0674,9.82374Z" id="id_105"></path><path class="cls-2" d="M110.58839,47.36161H17.41161a1.559,1.559,0,0,0-1.55785,1.55785v5.90918c0,.85949,16.14275,61.05238,16.14275,61.05238a11.08149,11.08149,0,0,0,11.03938,10.153H84.96412A11.08149,11.08149,0,0,0,96.0035,115.881s16.14275-60.19289,16.14275-61.05238V48.91946A1.559,1.559,0,0,0,110.58839,47.36161Zm-61.934,64.2194a2.60793,2.60793,0,0,1-3.19666-1.84821c-4.44239-16.61345-8.95983-33.53068-11.91535-44.72956a2.61069,2.61069,0,1,1,5.04851-1.33243c2.95407,11.19159,7.47077,28.10409,11.911,44.71353A2.61043,2.61043,0,0,1,48.65435,111.581Zm17.95316-2.52243a2.61095,2.61095,0,0,1-5.22189,0V64.337a2.61095,2.61095,0,0,1,5.22189,0ZM94.45735,65.00325C91.3685,76.70879,86.46715,95.05644,82.542,109.73317a2.61073,2.61073,0,1,1-5.04414-1.34918c3.9237-14.67272,8.8236-33.01491,11.911-44.71316a2.61069,2.61069,0,1,1,5.04851,1.33243Z" id="id_106"></path>
  </symbol>

  <symbol id="settings" viewBox="0 0 65 65">
    <title>settings</title>
      <path class="cls-1" d="M59.2,23.58a4.41,4.41,0,0,1-2-4.86A9.79,9.79,0,0,0,45.27,6.81a4.4,4.4,0,0,1-4.85-2,9.79,9.79,0,0,0-16.84,0,4.39,4.39,0,0,1-4.86,2A9.79,9.79,0,0,0,6.81,18.73a4.39,4.39,0,0,1-2,4.85,9.79,9.79,0,0,0,0,16.84,4.4,4.4,0,0,1,2,4.86A9.79,9.79,0,0,0,18.73,57.19a4.4,4.4,0,0,1,4.85,2,9.79,9.79,0,0,0,16.84,0,4.41,4.41,0,0,1,4.86-2A9.79,9.79,0,0,0,57.19,45.27a4.4,4.4,0,0,1,2-4.85,9.79,9.79,0,0,0,0-16.84ZM56.44,35.76A9.84,9.84,0,0,0,52,46.63a4.37,4.37,0,0,1-5.33,5.31,9.86,9.86,0,0,0-10.86,4.5,4.36,4.36,0,0,1-7.52,0,9.85,9.85,0,0,0-8.45-4.8,9.56,9.56,0,0,0-2.42.31,4.37,4.37,0,0,1-5.31-5.33,9.85,9.85,0,0,0-4.5-10.86,4.36,4.36,0,0,1,0-7.52,9.84,9.84,0,0,0,4.49-10.87,4.38,4.38,0,0,1,5.34-5.31,9.85,9.85,0,0,0,10.85-4.5,4.36,4.36,0,0,1,7.52,0,9.84,9.84,0,0,0,10.87,4.49A4.38,4.38,0,0,1,52,17.38a9.83,9.83,0,0,0,4.49,10.86,4.36,4.36,0,0,1,0,7.52Z"/><path class="cls-1" d="M32,18.47A13.53,13.53,0,1,0,45.53,32,13.55,13.55,0,0,0,32,18.47Zm0,21.65A8.12,8.12,0,1,1,40.12,32,8.13,8.13,0,0,1,32,40.12Z"/>
  </symbol>

 <symbol id="save" viewBox="0 0 84 84">
    <title>save</title>
    <path d="M83.061,27.94l-11-11c-0.281-0.281-0.663-0.439-1.061-0.439H18c-0.828,0-1.5,0.671-1.5,1.5v64c0,0.829,0.672,1.5,1.5,1.5h64 c0.828,0,1.5-0.671,1.5-1.5v-53C83.5,28.602,83.342,28.221,83.061,27.94z M34.5,19.5h31v21h-31V19.5z M71.5,80.5h-43v-26h43V80.5z M80.5,80.5h-6V53c0-0.829-0.672-1.5-1.5-1.5H27c-0.828,0-1.5,0.671-1.5,1.5v27.5h-6v-61h12V42c0,0.829,0.672,1.5,1.5,1.5h34 c0.828,0,1.5-0.671,1.5-1.5V19.5h1.879L80.5,29.621V80.5z"/>
  </symbol>

 <symbol id="save-a-copy" viewBox="0 0 26 26">
    <title>save-a-copy</title>
    <path fill-rule="evenodd" clip-rule="evenodd" d="M6 3C6 1.34315 7.34315 0 9 0H14C14.2652 0 14.5196 0.105357 14.7071 0.292893L21.7071 7.29289C21.8946 7.48043 22 7.73478 22 8V17C22 18.6569 20.6569 20 19 20H18V21C18 22.6569 16.6569 24 15 24H5C3.34315 24 2 22.6569 2 21V7C2 5.34315 3.34315 4 5 4H6V3ZM6 6H5C4.44772 6 4 6.44772 4 7V21C4 21.5523 4.44772 22 5 22H15C15.5523 22 16 21.5523 16 21V20H9C7.34315 20 6 18.6569 6 17V6ZM9 2C8.44772 2 8 2.44772 8 3V17C8 17.5523 8.44771 18 9 18H19C19.5523 18 20 17.5523 20 17V9H16C14.3431 9 13 7.65685 13 6V2H9ZM15 3.41421L18.5858 7H16C15.4477 7 15 6.55228 15 6V3.41421Z"/>
  </symbol>

  <symbol id="time" viewBox="0 0 64 64">
    <title>time</title>
    <path class="cls-1" d="M32,0A32,32,0,1,0,64,32,32,32,0,0,0,32,0Zm0,58.67A26.67,26.67,0,1,1,58.67,32,26.72,26.72,0,0,1,32,58.67Z"/><path class="cls-1" d="M43.55,34.67l-7.1-5.34L34.67,28V13.33a2.67,2.67,0,0,0-5.34,0v16a2.64,2.64,0,0,0,.08.62,2.25,2.25,0,0,0,.22.56,1.66,1.66,0,0,0,.29.48s0,.08.08.1a2.44,2.44,0,0,0,.37.35l0,0,.11.08,4.16,3.12,6.4,4.8a2.59,2.59,0,0,0,1.6.53,2.67,2.67,0,0,0,1.6-4.8Z"/>
  </symbol>

  <symbol id="notification" viewBox="0 0 25 25">
    <title>notification</title>
    <path d="M19.29,17.29 L18,16 L18,11 C18,7.93 16.36,5.36 13.5,4.68 L13.5,4 C13.5,3.17 12.83,2.5 12,2.5 C11.17,2.5 10.5,3.17 10.5,4 L10.5,4.68 C7.63,5.36 6,7.92 6,11 L6,16 L4.71,17.29 C4.08,17.92 4.52,19 5.41,19 L18.58,19 C19.48,19 19.92,17.92 19.29,17.29 Z M16,17 L8,17 L8,11 C8,8.52 9.51,6.5 12,6.5 C14.49,6.5 16,8.52 16,11 L16,17 Z M12,22 C13.1,22 14,21.1 14,20 L10,20 C10,21.1 10.89,22 12,22 Z" id="🔹-Icon-Color" ></path>
  </symbol>

  <symbol id="folder" viewBox="0 0 25 25">
    <title>folder</title>
    <path fill-rule="evenodd" clip-rule="evenodd" d="M3 5C2.44772 5 2 5.44772 2 6V15.2878L3.55831 11.7816C4.03982 10.6982 5.11418 10 6.29975 10H19V9C19 8.44771 18.5523 8 18 8H11C10.7348 8 10.4804 7.89464 10.2929 7.70711L7.87868 5.29289C7.69114 5.10536 7.43679 5 7.17157 5H3ZM21 10.001C23.1278 10.0534 24.5351 12.2583 23.6639 14.2184L21.4417 19.2184C20.9602 20.3018 19.8858 21 18.7003 21H3C1.34315 21 0 19.6569 0 18V6C0 4.34315 1.34315 3 3 3H7.17157C7.96722 3 8.73028 3.31607 9.29289 3.87868L11.4142 6H18C19.6569 6 21 7.34315 21 9V10.001ZM6.29975 12C5.90456 12 5.54644 12.2327 5.38593 12.5939L2.57979 18.9077C2.70754 18.9669 2.84991 19 3 19H18.7003C19.0954 19 19.4536 18.7673 19.6141 18.4061L21.8363 13.4061C22.1302 12.7449 21.6461 12 20.9225 12H6.29975Z" />
  </symbol>

  <symbol id="home" viewBox="0 0 25 25">
    <title>home</title>
    <path fill-rule="evenodd" clip-rule="evenodd" d="M12.5882 3.66429C12.2376 3.40927 11.7625 3.40927 11.4119 3.66429L5.00007 8.32743V20C5.00007 20.5523 5.44779 21 6.00007 21H8.00007V15C8.00007 13.3432 9.34322 12 11.0001 12H13.0001C14.6569 12 16.0001 13.3432 16.0001 15V21H18.0001C18.5524 21 19.0001 20.5523 19.0001 20V8.32743L12.5882 3.66429ZM21.0001 9.78198L22.4119 10.8088C22.8586 11.1336 23.484 11.0349 23.8088 10.5882C24.1336 10.1415 24.0349 9.51613 23.5882 9.19129L13.7646 2.04681C12.7126 1.28176 11.2875 1.28176 10.2356 2.04681L0.411899 9.19129C-0.0347537 9.51613 -0.133504 10.1415 0.191334 10.5882C0.516173 11.0349 1.14159 11.1336 1.58824 10.8088L3.00007 9.78198V20C3.00007 21.6569 4.34322 23 6.00007 23H18.0001C19.6569 23 21.0001 21.6569 21.0001 20V9.78198ZM14.0001 21V15C14.0001 14.4477 13.5524 14 13.0001 14H11.0001C10.4478 14 10.0001 14.4477 10.0001 15V21H14.0001Z" />
  </symbol>

  <symbol id="system" viewBox="0 0 32 32">
    <title>system</title>
    <path class="st0" d="M3,6v15c0,1.1,0.9,2,2,2h22c1.1,0,2-0.9,2-2V6c0-1.1-0.9-2-2-2H5C3.9,4,3,4.9,3,6z"/>
    <line class="st0" x1="3" y1="19" x2="29" y2="19"/>
    <line class="st0" x1="9" y1="29" x2="23" y2="29"/>
    <path class="st0" d="M13,23c0,2.1-0.7,4.6-1.8,6"/>
    <path class="st0" d="M20.8,29c-1.1-1.4-1.8-3.9-1.8-6"/>
    <path class="st0" d="M12.2,11.5L15,8.7c-0.8-1-2.1-1.7-3.5-1.7C9,7,7,9,7,11.5S9,16,11.5,16c1.4,0,2.7-0.7,3.5-1.7L12.2,11.5z"/>
    <circle class="st0" cx="16.5" cy="11.5" r="0.5"/>
    <circle class="st0" cx="20.5" cy="11.5" r="0.5"/>
    <circle class="st0" cx="24.5" cy="11.5" r="0.5"/>
  </symbol>

  <symbol id="menu" viewBox="0 0 32 32">
    <title>menu</title>
    <path d="M12 8c1.1 0 2-.9 2-2s-.9-2-2-2-2 .9-2 2 .9 2 2 2zm0 2c-1.1 0-2 .9-2 2s.9 2 2 2 2-.9 2-2-.9-2-2-2zm0 6c-1.1 0-2 .9-2 2s.9 2 2 2 2-.9 2-2-.9-2-2-2z">
    </path>
  </symbol>
  <symbol id="icon-heart-o" viewBox="0 0 32 32">
    <title>icon-heart-o</title>
    <path d="M22.88 1.952c-2.72 0-5.184 1.28-6.88 3.456-1.696-2.176-4.16-3.456-6.88-3.456-4.48 0-9.024 3.648-9.024 10.592 0 7.232 7.776 12.704 15.072 17.248 0.256 0.16 0.544 0.256 0.832 0.256s0.576-0.096 0.832-0.256c7.296-4.544 15.072-10.016 15.072-17.248 0-6.944-4.544-10.592-9.024-10.592zM16 26.56c-4.864-3.072-12.736-8.288-12.736-14.016 0-5.088 3.040-7.424 5.824-7.424 2.368 0 4.384 1.504 5.408 4.032 0.256 0.608 0.832 0.992 1.472 0.992s1.248-0.384 1.472-0.992c1.024-2.528 3.040-4.032 5.408-4.032 2.816 0 5.824 2.304 5.824 7.424 0.064 5.728-7.808 10.976-12.672 14.016z"></path>
    <path d="M16 30.144c-0.32 0-0.64-0.096-0.896-0.256-7.296-4.576-15.104-10.048-15.104-17.344 0-7.008 4.576-10.688 9.12-10.688 2.656 0 5.152 1.216 6.88 3.392 1.728-2.144 4.224-3.392 6.88-3.392 4.544 0 9.12 3.68 9.12 10.688 0 7.296-7.808 12.768-15.104 17.344-0.256 0.16-0.576 0.256-0.896 0.256zM9.12 2.048c-4.448 0-8.928 3.616-8.928 10.496 0 7.168 7.744 12.64 15.008 17.152 0.48 0.288 1.12 0.288 1.568 0 7.264-4.544 15.008-9.984 15.008-17.152 0-6.88-4.48-10.496-8.928-10.496-2.656 0-5.088 1.216-6.816 3.392l-0.032 0.128-0.064-0.096c-1.696-2.176-4.192-3.424-6.816-3.424zM16 26.688l-0.064-0.032c-3.808-2.4-12.768-8.032-12.768-14.112 0-5.152 3.072-7.52 5.952-7.52 2.432 0 4.48 1.536 5.504 4.096 0.224 0.576 0.768 0.928 1.376 0.928s1.152-0.384 1.376-0.928c1.024-2.56 3.072-4.096 5.504-4.096 2.848 0 5.952 2.336 5.952 7.52 0 6.080-8.96 11.712-12.768 14.112l-0.064 0.032zM9.12 5.248c-2.752 0-5.728 2.304-5.728 7.328 0 5.952 8.8 11.488 12.608 13.92 3.808-2.4 12.608-7.968 12.608-13.92 0-5.024-2.976-7.328-5.728-7.328-2.336 0-4.32 1.472-5.312 3.968-0.256 0.64-0.864 1.056-1.568 1.056s-1.312-0.416-1.568-1.056c-0.992-2.496-2.976-3.968-5.312-3.968z"></path>
    <path d="M6.816 20.704c0.384 0.288 0.512 0.704 0.48 1.12 0.224 0.256 0.384 0.608 0.384 0.96 0 0.032 0 0.032 0 0.064 0.16 0.128 0.32 0.256 0.48 0.384 0.128 0.064 0.256 0.16 0.384 0.256 0.096 0.064 0.192 0.16 0.256 0.224 0.8 0.576 1.632 1.12 2.496 1.664 0.416 0.128 0.8 0.256 1.056 0.32 1.984 0.576 4.064 0.8 6.112 0.928 2.688-1.92 5.312-3.904 8-5.792 0.896-1.088 1.92-2.080 2.912-3.104v-7.552c-0.096-0.128-0.192-0.288-0.32-0.416-0.768-1.024-1.184-2.176-1.6-3.296-0.768-0.416-1.536-0.8-2.336-1.12-0.128-0.064-0.256-0.096-0.384-0.16h-21.568v12.992c1.312 0.672 2.496 1.6 3.648 2.528z"></path>
  </symbol>
  <symbol id="icon-heart" viewBox="0 0 32 32">
    <title>icon-heart</title>
    <path d="M22.88 1.952c-2.72 0-5.184 1.28-6.88 3.456-1.696-2.176-4.16-3.456-6.88-3.456-4.48 0-9.024 3.648-9.024 10.592 0 7.232 7.776 12.704 15.072 17.248 0.256 0.16 0.544 0.256 0.832 0.256s0.576-0.096 0.832-0.256c7.296-4.544 15.072-10.016 15.072-17.248 0-6.944-4.544-10.592-9.024-10.592zM16 26.56c-4.864-3.072-12.736-8.288-12.736-14.016 0-5.088 3.040-7.424 5.824-7.424 2.368 0 4.384 1.504 5.408 4.032 0.256 0.608 0.832 0.992 1.472 0.992s1.248-0.384 1.472-0.992c1.024-2.528 3.040-4.032 5.408-4.032 2.816 0 5.824 2.304 5.824 7.424 0.064 5.728-7.808 10.976-12.672 14.016z"></path>
    <path d="M16 30.144c-0.32 0-0.64-0.096-0.896-0.256-7.296-4.576-15.104-10.048-15.104-17.344 0-7.008 4.576-10.688 9.12-10.688 2.656 0 5.152 1.216 6.88 3.392 1.728-2.144 4.224-3.392 6.88-3.392 4.544 0 9.12 3.68 9.12 10.688 0 7.296-7.808 12.768-15.104 17.344-0.256 0.16-0.576 0.256-0.896 0.256zM9.12 2.048c-4.448 0-8.928 3.616-8.928 10.496 0 7.168 7.744 12.64 15.008 17.152 0.48 0.288 1.12 0.288 1.568 0 7.264-4.544 15.008-9.984 15.008-17.152 0-6.88-4.48-10.496-8.928-10.496-2.656 0-5.088 1.216-6.816 3.392l-0.032 0.128-0.064-0.096c-1.696-2.176-4.192-3.424-6.816-3.424zM16 26.688l-0.064-0.032c-3.808-2.4-12.768-8.032-12.768-14.112 0-5.152 3.072-7.52 5.952-7.52 2.432 0 4.48 1.536 5.504 4.096 0.224 0.576 0.768 0.928 1.376 0.928s1.152-0.384 1.376-0.928c1.024-2.56 3.072-4.096 5.504-4.096 2.848 0 5.952 2.336 5.952 7.52 0 6.080-8.96 11.712-12.768 14.112l-0.064 0.032zM9.12 5.248c-2.752 0-5.728 2.304-5.728 7.328 0 5.952 8.8 11.488 12.608 13.92 3.808-2.4 12.608-7.968 12.608-13.92 0-5.024-2.976-7.328-5.728-7.328-2.336 0-4.32 1.472-5.312 3.968-0.256 0.64-0.864 1.056-1.568 1.056s-1.312-0.416-1.568-1.056c-0.992-2.496-2.976-3.968-5.312-3.968z"></path>
  </symbol>
  <symbol id="icon-infinity" viewBox="0 0 32 32">
    <title>icon-infinity</title>
    <path d="M29.312 20.832c-1.28 1.28-3.008 1.984-4.832 1.984s-3.52-0.704-4.832-1.984c-0.032-0.032-0.224-0.224-0.256-0.256v0 1.28c0 0.448-0.352 0.8-0.8 0.8s-0.8-0.352-0.8-0.8v-3.168c0-0.448 0.352-0.8 0.8-0.8h3.168c0.448 0 0.8 0.352 0.8 0.8s-0.352 0.8-0.8 0.8h-1.28c0.032 0.032 0.224 0.224 0.256 0.256 0.992 0.992 2.304 1.536 3.68 1.536 1.408 0 2.72-0.544 3.68-1.536 0.992-0.992 1.536-2.304 1.536-3.68s-0.544-2.72-1.536-3.68c-0.992-0.992-2.304-1.536-3.68-1.536-1.408 0-2.72 0.544-3.68 1.536l-8.416 8.448c-1.312 1.312-3.072 1.984-4.832 1.984s-3.488-0.672-4.832-1.984c-2.656-2.656-2.656-6.976 0-9.632s6.976-2.656 9.632 0c0.032 0.032 0.16 0.16 0.192 0.192l0.064 0.064v-1.28c0-0.448 0.352-0.8 0.8-0.8s0.8 0.352 0.8 0.8v3.168c0 0.448-0.352 0.8-0.8 0.8h-3.168c-0.448 0-0.8-0.352-0.8-0.8s0.352-0.8 0.8-0.8h1.28l-0.096-0.064c-0.032-0.032-0.16-0.16-0.192-0.192-0.992-0.992-2.304-1.536-3.68-1.536s-2.72 0.544-3.68 1.536c-2.048 2.048-2.048 5.344 0 7.392 0.992 0.992 2.304 1.536 3.68 1.536s2.72-0.544 3.68-1.536l8.512-8.512c1.28-1.28 3.008-1.984 4.832-1.984s3.52 0.704 4.832 1.984c2.624 2.656 2.624 7.008-0.032 9.664z"></path>
    <path d="M24.512 23.488c-1.6 0-3.136-0.512-4.416-1.44-0.128 0.704-0.736 1.248-1.44 1.248-0.8 0-1.472-0.672-1.472-1.472v-3.168c0-0.8 0.672-1.472 1.472-1.472h3.168c0.8 0 1.472 0.672 1.472 1.472 0 0.608-0.384 1.152-0.928 1.376 0.64 0.352 1.376 0.544 2.144 0.544 1.216 0 2.368-0.48 3.2-1.344 0.864-0.864 1.344-1.984 1.344-3.2s-0.48-2.368-1.344-3.2c-0.864-0.864-1.984-1.344-3.2-1.344s-2.368 0.48-3.2 1.344l-8.512 8.48c-1.408 1.408-3.296 2.176-5.312 2.176s-3.872-0.768-5.312-2.176c-2.912-2.912-2.912-7.68 0-10.592 1.408-1.408 3.296-2.176 5.312-2.176 0 0 0 0 0 0 1.6 0 3.136 0.512 4.416 1.44 0.128-0.704 0.736-1.248 1.472-1.248 0.8 0 1.472 0.672 1.472 1.472v3.168c0 0.8-0.672 1.472-1.472 1.472h-3.168c-0.8 0-1.472-0.672-1.472-1.472 0-0.608 0.384-1.152 0.928-1.376-0.64-0.352-1.376-0.544-2.144-0.544-1.216 0-2.368 0.48-3.2 1.344-1.76 1.76-1.76 4.64 0 6.432 0.864 0.864 2.016 1.344 3.2 1.344 1.216 0 2.368-0.48 3.2-1.344l8.48-8.544c1.408-1.408 3.296-2.208 5.312-2.208s3.872 0.768 5.312 2.208c1.408 1.408 2.176 3.296 2.176 5.312s-0.768 3.872-2.208 5.312v0c0 0 0 0 0 0-1.408 1.408-3.296 2.176-5.28 2.176zM18.752 18.912l1.44 1.44c1.152 1.152 2.688 1.792 4.32 1.792s3.168-0.64 4.32-1.792v0c1.152-1.152 1.792-2.688 1.792-4.32s-0.64-3.168-1.792-4.32c-1.152-1.152-2.688-1.792-4.352-1.792-1.632 0-3.168 0.64-4.32 1.792l-8.48 8.448c-1.12 1.12-2.592 1.728-4.16 1.728s-3.072-0.608-4.16-1.728c-2.304-2.304-2.304-6.048 0-8.352 1.12-1.12 2.592-1.728 4.16-1.728s3.072 0.608 4.16 1.728l1.44 1.408h-2.912c-0.064 0-0.128 0.064-0.128 0.128s0.064 0.128 0.128 0.128h3.168c0.064 0 0.128-0.064 0.128-0.128v-3.168c0-0.064-0.064-0.128-0.128-0.128s-0.128 0.064-0.128 0.128v2.912l-1.408-1.408c-1.152-1.152-2.688-1.792-4.352-1.792-1.632 0-3.168 0.64-4.32 1.792-2.4 2.4-2.4 6.272 0 8.672 1.152 1.152 2.688 1.792 4.32 1.792s3.168-0.64 4.32-1.792l8.512-8.512c1.12-1.12 2.592-1.728 4.16-1.728s3.072 0.608 4.16 1.728c1.12 1.12 1.728 2.592 1.728 4.16s-0.608 3.072-1.728 4.16c-1.12 1.12-2.592 1.728-4.16 1.728s-3.072-0.608-4.16-1.728l-1.408-1.408h2.912c0.064 0 0.128-0.064 0.128-0.128s-0.064-0.128-0.128-0.128h-3.168c-0.064 0-0.128 0.064-0.128 0.128v3.168c0 0.064 0.064 0.128 0.128 0.128s0.128-0.064 0.128-0.128v-2.88z"></path>
  </symbol>
  <symbol id="icon-pause" viewBox="0 0 32 32">
    <title>icon-pause</title>
    <path d="M16 0.32c-8.64 0-15.68 7.040-15.68 15.68s7.040 15.68 15.68 15.68 15.68-7.040 15.68-15.68-7.040-15.68-15.68-15.68zM16 29.216c-7.296 0-13.216-5.92-13.216-13.216s5.92-13.216 13.216-13.216 13.216 5.92 13.216 13.216-5.92 13.216-13.216 13.216z"></path>
    <path d="M16 32c-8.832 0-16-7.168-16-16s7.168-16 16-16 16 7.168 16 16-7.168 16-16 16zM16 0.672c-8.448 0-15.328 6.88-15.328 15.328s6.88 15.328 15.328 15.328c8.448 0 15.328-6.88 15.328-15.328s-6.88-15.328-15.328-15.328zM16 29.568c-7.488 0-13.568-6.080-13.568-13.568s6.080-13.568 13.568-13.568c7.488 0 13.568 6.080 13.568 13.568s-6.080 13.568-13.568 13.568zM16 3.104c-7.104 0-12.896 5.792-12.896 12.896s5.792 12.896 12.896 12.896c7.104 0 12.896-5.792 12.896-12.896s-5.792-12.896-12.896-12.896z"></path>
    <path d="M12.16 22.336v0c-0.896 0-1.6-0.704-1.6-1.6v-9.472c0-0.896 0.704-1.6 1.6-1.6v0c0.896 0 1.6 0.704 1.6 1.6v9.504c0 0.864-0.704 1.568-1.6 1.568z"></path>
    <path d="M19.84 22.336v0c-0.896 0-1.6-0.704-1.6-1.6v-9.472c0-0.896 0.704-1.6 1.6-1.6v0c0.896 0 1.6 0.704 1.6 1.6v9.504c0 0.864-0.704 1.568-1.6 1.568z"></path>
  </symbol>
  <symbol id="icon-play" viewBox="0 0 32 32">
    <title>icon-play</title>
    <path d="M21.216 15.168l-7.616-5.088c-0.672-0.416-1.504 0.032-1.504 0.832v10.176c0 0.8 0.896 1.248 1.504 0.832l7.616-5.088c0.576-0.416 0.576-1.248 0-1.664z"></path>
    <path d="M13.056 22.4c-0.224 0-0.416-0.064-0.608-0.16-0.448-0.224-0.704-0.672-0.704-1.152v-10.176c0-0.48 0.256-0.928 0.672-1.152s0.928-0.224 1.344 0.064l7.616 5.088c0.384 0.256 0.608 0.672 0.608 1.088s-0.224 0.864-0.608 1.088l-7.616 5.088c-0.192 0.16-0.448 0.224-0.704 0.224zM13.056 10.272c-0.096 0-0.224 0.032-0.32 0.064-0.224 0.128-0.352 0.32-0.352 0.576v10.176c0 0.256 0.128 0.48 0.352 0.576 0.224 0.128 0.448 0.096 0.64-0.032l7.616-5.088c0.192-0.128 0.288-0.32 0.288-0.544s-0.096-0.416-0.288-0.544l-7.584-5.088c-0.096-0.064-0.224-0.096-0.352-0.096z"></path>
    <path d="M16 0.32c-8.64 0-15.68 7.040-15.68 15.68s7.040 15.68 15.68 15.68 15.68-7.040 15.68-15.68-7.040-15.68-15.68-15.68zM16 29.216c-7.296 0-13.216-5.92-13.216-13.216s5.92-13.216 13.216-13.216 13.216 5.92 13.216 13.216-5.92 13.216-13.216 13.216z"></path>
    <path d="M16 32c-8.832 0-16-7.168-16-16s7.168-16 16-16 16 7.168 16 16-7.168 16-16 16zM16 0.672c-8.448 0-15.328 6.88-15.328 15.328s6.88 15.328 15.328 15.328c8.448 0 15.328-6.88 15.328-15.328s-6.88-15.328-15.328-15.328zM16 29.568c-7.488 0-13.568-6.080-13.568-13.568s6.080-13.568 13.568-13.568c7.488 0 13.568 6.080 13.568 13.568s-6.080 13.568-13.568 13.568zM16 3.104c-7.104 0-12.896 5.792-12.896 12.896s5.792 12.896 12.896 12.896c7.104 0 12.896-5.792 12.896-12.896s-5.792-12.896-12.896-12.896z"></path>
  </symbol>
  <symbol id="icon-link" viewBox="0 0 32 32">
  <title>link</title>
    <path d="M23.584 17.92c0 0.864 0 1.728 0 2.56 0 1.312 0 2.656 0 3.968 0 0.352 0.032 0.736-0.032 1.12 0.032-0.16 0.032-0.288 0.064-0.448-0.032 0.224-0.096 0.448-0.16 0.64 0.064-0.128 0.128-0.256 0.16-0.416-0.096 0.192-0.192 0.384-0.32 0.576 0.096-0.128 0.16-0.224 0.256-0.352-0.128 0.16-0.288 0.32-0.48 0.48 0.128-0.096 0.224-0.16 0.352-0.256-0.192 0.128-0.352 0.256-0.576 0.32 0.128-0.064 0.256-0.128 0.416-0.16-0.224 0.096-0.416 0.16-0.64 0.16 0.16-0.032 0.288-0.032 0.448-0.064-0.256 0.032-0.512 0.032-0.768 0.032-0.448 0-0.896 0-1.312 0-1.472 0-2.976 0-4.448 0-1.824 0-3.616 0-5.44 0-1.568 0-3.104 0-4.672 0-0.736 0-1.44 0-2.176 0-0.128 0-0.224 0-0.352-0.032 0.16 0.032 0.288 0.032 0.448 0.064-0.224-0.032-0.448-0.096-0.64-0.16 0.128 0.064 0.256 0.128 0.416 0.16-0.192-0.096-0.384-0.192-0.576-0.32 0.128 0.096 0.224 0.16 0.352 0.256-0.16-0.128-0.32-0.288-0.48-0.48 0.096 0.128 0.16 0.224 0.256 0.352-0.128-0.192-0.256-0.352-0.32-0.576 0.064 0.128 0.128 0.256 0.16 0.416-0.096-0.224-0.16-0.416-0.16-0.64 0.032 0.16 0.032 0.288 0.064 0.448-0.032-0.256-0.032-0.512-0.032-0.768 0-0.448 0-0.896 0-1.312 0-1.472 0-2.976 0-4.448 0-1.824 0-3.616 0-5.44 0-1.568 0-3.104 0-4.672 0-0.736 0-1.44 0-2.176 0-0.128 0-0.224 0.032-0.352-0.032 0.16-0.032 0.288-0.064 0.448 0.032-0.224 0.096-0.448 0.16-0.64-0.064 0.128-0.128 0.256-0.16 0.416 0.096-0.192 0.192-0.384 0.32-0.576-0.096 0.128-0.16 0.224-0.256 0.352 0.128-0.16 0.288-0.32 0.48-0.48-0.128 0.096-0.224 0.16-0.352 0.256 0.192-0.128 0.352-0.256 0.576-0.32-0.128 0.064-0.256 0.128-0.416 0.16 0.224-0.096 0.416-0.16 0.64-0.16-0.16 0.032-0.288 0.032-0.448 0.064 0.48-0.064 0.96-0.032 1.44-0.032 0.992 0 1.952 0 2.944 0 1.216 0 2.432 0 3.616 0 1.056 0 2.112 0 3.168 0 0.512 0 1.024 0 1.536 0 0 0 0 0 0.032 0 0.448 0 0.896-0.192 1.184-0.48s0.512-0.768 0.48-1.184c-0.032-0.448-0.16-0.896-0.48-1.184s-0.736-0.48-1.184-0.48c-0.64 0-1.28 0-1.92 0-1.408 0-2.816 0-4.224 0-1.44 0-2.848 0-4.256 0-0.672 0-1.344 0-2.016 0-0.736 0-1.472 0.192-2.112 0.576s-1.216 0.96-1.568 1.6c-0.384 0.64-0.544 1.376-0.544 2.144 0 0.672 0 1.376 0 2.048 0 1.28 0 2.56 0 3.84 0 1.504 0 3.040 0 4.544 0 1.408 0 2.848 0 4.256 0 0.992 0 1.952 0 2.944 0 0.224 0 0.448 0 0.64 0 0.864 0.224 1.76 0.768 2.464 0.16 0.192 0.288 0.384 0.48 0.576s0.384 0.352 0.608 0.512c0.32 0.224 0.64 0.384 1.024 0.512 0.448 0.16 0.928 0.224 1.408 0.224 0.16 0 0.32 0 0.48 0 0.896 0 1.792 0 2.72 0 1.376 0 2.784 0 4.16 0 1.536 0 3.040 0 4.576 0 1.312 0 2.656 0 3.968 0 0.768 0 1.536 0 2.336 0 0.416 0 0.832-0.032 1.248-0.128 1.504-0.32 2.784-1.6 3.104-3.104 0.128-0.544 0.128-1.056 0.128-1.568 0-0.608 0-1.184 0-1.792 0-1.408 0-2.816 0-4.224 0-0.256 0-0.512 0-0.768 0-0.448-0.192-0.896-0.48-1.184s-0.768-0.512-1.184-0.48c-0.448 0.032-0.896 0.16-1.184 0.48-0.384 0.384-0.576 0.768-0.576 1.248v0z"></path>
    <path d="M32 11.232c0-0.8 0-1.568 0-2.368 0-1.248 0-2.528 0-3.776 0-0.288 0-0.576 0-0.864 0-0.896-0.768-1.696-1.696-1.696-0.8 0-1.568 0-2.368 0-1.248 0-2.528 0-3.776 0-0.288 0-0.576 0-0.864 0-0.448 0-0.896 0.192-1.184 0.48s-0.512 0.768-0.48 1.184c0.032 0.448 0.16 0.896 0.48 1.184s0.736 0.48 1.184 0.48c0.8 0 1.568 0 2.368 0 1.248 0 2.528 0 3.776 0 0.288 0 0.576 0 0.864 0-0.576-0.576-1.12-1.12-1.696-1.696 0 0.8 0 1.568 0 2.368 0 1.248 0 2.528 0 3.776 0 0.288 0 0.576 0 0.864 0 0.448 0.192 0.896 0.48 1.184s0.768 0.512 1.184 0.48c0.448-0.032 0.896-0.16 1.184-0.48 0.352-0.256 0.544-0.64 0.544-1.12v0z"></path>
    <path d="M15.040 21.888c0.16-0.16 0.288-0.288 0.448-0.448 0.384-0.384 0.8-0.8 1.184-1.184 0.608-0.608 1.184-1.184 1.792-1.792 0.704-0.704 1.44-1.44 2.176-2.176 0.8-0.8 1.568-1.568 2.368-2.368s1.6-1.6 2.4-2.4c0.736-0.736 1.504-1.504 2.24-2.24 0.64-0.64 1.248-1.248 1.888-1.888 0.448-0.448 0.896-0.896 1.344-1.344 0.224-0.224 0.448-0.416 0.64-0.64 0 0 0.032-0.032 0.032-0.032 0.32-0.32 0.48-0.768 0.48-1.184s-0.192-0.896-0.48-1.184c-0.32-0.288-0.736-0.512-1.184-0.48-0.512 0.032-0.928 0.16-1.248 0.48-0.16 0.16-0.288 0.288-0.448 0.448-0.384 0.384-0.8 0.8-1.184 1.184-0.608 0.608-1.184 1.184-1.792 1.792-0.704 0.704-1.44 1.44-2.176 2.176-0.8 0.8-1.568 1.568-2.368 2.368s-1.6 1.6-2.4 2.4c-0.736 0.736-1.504 1.504-2.24 2.24-0.64 0.64-1.248 1.248-1.888 1.888-0.448 0.448-0.896 0.896-1.344 1.344-0.224 0.224-0.448 0.416-0.64 0.64 0 0-0.032 0.032-0.032 0.032-0.32 0.32-0.48 0.768-0.48 1.184s0.192 0.896 0.48 1.184c0.32 0.288 0.736 0.512 1.184 0.48 0.48 0 0.928-0.16 1.248-0.48v0z"></path>
  </symbol>
  <symbol id="icon-next" viewBox="0 0 32 32">
    <title>next</title>
    <path d="M2.304 18.304h14.688l-4.608 4.576c-0.864 0.864-0.864 2.336 0 3.232 0.864 0.864 2.336 0.864 3.232 0l8.448-8.48c0.864-0.864 0.864-2.336 0-3.232l-8.448-8.448c-0.448-0.448-1.056-0.672-1.632-0.672s-1.184 0.224-1.632 0.672c-0.864 0.864-0.864 2.336 0 3.232l4.64 4.576h-14.688c-1.248 0-2.304 0.992-2.304 2.272s1.024 2.272 2.304 2.272z"></path>
    <path d="M29.696 26.752c1.248 0 2.304-1.024 2.304-2.304v-16.928c0-1.248-1.024-2.304-2.304-2.304s-2.304 1.024-2.304 2.304v16.928c0.064 1.28 1.056 2.304 2.304 2.304z"></path>
  </symbol>
  <symbol id="icon-prev" viewBox="0 0 32 32">
    <title>prev</title>
    <path d="M29.696 13.696h-14.688l4.576-4.576c0.864-0.864 0.864-2.336 0-3.232-0.864-0.864-2.336-0.864-3.232 0l-8.448 8.48c-0.864 0.864-0.864 2.336 0 3.232l8.448 8.448c0.448 0.448 1.056 0.672 1.632 0.672s1.184-0.224 1.632-0.672c0.864-0.864 0.864-2.336 0-3.232l-4.608-4.576h14.688c1.248 0 2.304-1.024 2.304-2.304s-1.024-2.24-2.304-2.24z"></path>
    <path d="M2.304 5.248c-1.248 0-2.304 1.024-2.304 2.304v16.928c0 1.248 1.024 2.304 2.304 2.304s2.304-1.024 2.304-2.304v-16.928c-0.064-1.28-1.056-2.304-2.304-2.304z"></path>
  </symbol>
      
</svg>